# xmcd CD database file
#
# Track frame offsets:
#	150
#	54709
#	94353
#	132408
#	148902
#
# Disc length: 2244 seconds
#
# Revision: 0
# Processed by: cddbd v1.5.2PL0 Copyright (c) Steve Scherf et al.
# Submitted via: CDex 1.70beta3
#
DISCID=4e08c205
DTITLE=Eric Dolphy - Muses
DYEAR=1963
DGENRE=Jazz
TTITLE0=Alone Together
TTITLE1=Muses
TTITLE2=Iron Man
TTITLE3=Love Me
TTITLE4=Mandrake
EXTD=YEAR: 1963
EXTT0=
EXTT1=
EXTT2=
EXTT3=
EXTT4=
PLAYORDER=
